<?xml version="1.0" encoding="utf-8"?>
<svg xmlns="http://www.w3.org/2000/svg" version="1.2" baseProfile="tiny"
     width="1024px" height="1024px" viewBox="0 0 1024 1024">
<g id="Bg">
	<rect x="59" y="59" fill="#214724" width="906" height="906"/>
	<path display="none" fill="#214724" d="M965,953c0,6.627-5.373,12-12,12H71c-6.627,0-12-5.373-12-12V71c0-6.627,5.373-12,12-12h882
		c6.627,0,12,5.373,12,12V953z"/>
	<path display="none" fill="#214724" d="M965,917c0,26.51-21.49,48-48,48H107c-26.51,0-48-21.49-48-48V107c0-26.51,21.49-48,48-48
		h810c26.51,0,48,21.49,48,48V917z"/>
</g>
<g id="Front">
	<polygon fill="#2B2B2B" points="675.93,952.29 897,586.604 897,159.124 614.059,539.956 	"/>
	<polygon fill="#9E9E9E" points="914.088,589.851 914.767,682.584 780.59,915.253 775.498,827.32 757.342,818.903 894.135,585.646 	
		"/>
	<polygon fill="#2B2B2B" points="775.498,827.32 780.588,915.253 762.955,908.198 757.34,818.903 	"/>
</g>
<g id="Side">
	<path fill-rule="evenodd" fill="#151515" d="M613.867,539.956l61.935,412.334c0,0-159.438,30.517-256.745-3.084
		c-97.307-32.394-148.635-106.333-148.635-106.333L95.338,425.175C95.338,425.175,237.99,630.068,613.867,539.956z"/>
	<path fill-rule="evenodd" fill="#9E9E9E" d="M687.771,936.129c-1.575-32.824-55.992-51.09-119.197-46.096
		c-63.206,4.991-113.707,35.397-111.146,67.828c2.563,32.43,64.568,54.206,120.805,51.84
		C648.191,1006.759,689.646,975.189,687.771,936.129z"/>
</g>
<g id="Wheels">
	<path fill-rule="evenodd" fill="#3E3E3E" d="M457.428,957.861c0,0-9.428-26.53,17.046-44.476
		c33.267-22.55,77.981-21.495,77.981-21.495s-26.455,7.859-33.738,12.24c-12.217,2.133-26.979,8.406-40.534,17.27
		C454.462,936.91,457.428,957.861,457.428,957.861z"/>
	<polygon fill-rule="evenodd" fill="#3E3E3E" points="566.904,917.856 550.17,916.616 540.3,894.67 549.596,898.32 561.943,894.763 
			"/>
	<polygon fill-rule="evenodd" fill="#3E3E3E" points="581.781,916.311 580.564,903.429 596.248,894.478 610.736,901.016 
		593.406,922.615 	"/>
	<polygon fill-rule="evenodd" fill="#3E3E3E" points="607.435,921.83 643.599,905.338 656.827,911.965 617.902,927.859 	"/>
	<polygon fill-rule="evenodd" fill="#3E3E3E" points="631.677,934.762 632.196,940.294 665.747,935.477 681.548,933.298 
		675.154,924.936 	"/>
	<polygon fill-rule="evenodd" fill="#3E3E3E" points="635,950 635,956 683.602,958.994 684.998,949.075 	"/>
	<polygon fill-rule="evenodd" fill="#3E3E3E" points="631.514,966.159 630.41,973.373 656.769,979.173 663.957,983.485 
		675.802,971.846 	"/>
	<polygon fill-rule="evenodd" fill="#3E3E3E" points="616.633,984.082 626.236,1002.604 653.105,991 636,991 629.58,980.924 	"/>
	<polygon fill-rule="evenodd" fill="#2B2B2B" points="583.133,990.509 592.756,1008.373 615.224,1004.875 605.167,1000.179 
		599.178,988.965 	"/>
	<polygon fill-rule="evenodd" fill="#2B2B2B" points="552.455,991.351 572.107,993.396 566.226,1004.603 565.32,1009.827 
		550.502,1008.986 552.834,1005.179 	"/>
	<polygon fill-rule="evenodd" fill="#2B2B2B" points="539.063,990.638 533.646,996.787 529.885,1006.082 508.72,1000.769 
		529.159,992.371 529.834,988.965 	"/>
	<polygon fill-rule="evenodd" fill="#2B2B2B" points="491.862,994.313 507.698,984.732 513.934,981.528 506,975.018 496.65,978.397 
		476.802,985.835 	"/>
	<polygon fill-rule="evenodd" fill="#2B2B2B" points="465.511,975.851 499.079,969.516 498.725,964 477,964 460.064,967.56 	"/>
	<polygon fill-rule="evenodd" fill="#2B2B2B" points="458.205,948 489.25,948 460.292,940.293 	"/>
	<polygon fill-rule="evenodd" fill="#2B2B2B" points="468.908,929.245 496.492,937.075 502.631,930.114 480.439,919.491 	"/>
	<polygon fill-rule="evenodd" fill="#2B2B2B" points="500.443,909.468 519.357,924.305 533.549,923.604 534.297,919.97 
		518.717,904.131 	"/>
	<path fill-rule="evenodd" fill="#9E9E9E" d="M267.122,824.076l-16.668,6.1c0,0-8.276-21.792-17.121-48.842
		c-11.303-34.568-18.717-70.451-18.717-70.451s14.117,33.542,29.116,65.878S267.122,824.076,267.122,824.076z"/>
	<polygon fill-rule="evenodd" fill="#3E3E3E" points="250.454,830.176 260.408,853.168 276.97,847.315 267.122,824.076 	"/>
	<path fill-rule="evenodd" fill="#9E9E9E" d="M897,513.917c0,0,9.176,14.997,10.838,41.79s-1.288,32.555-1.288,32.555l-18.895,8.433
		c0,0,9.345-7.694,7.333-22.444c-2.343-17.179-2.947-14.768-2.947-14.768L897,513.917z"/>
</g>
<g id="Top">
	<path fill="#3E3E3E" d="M896.307,159.124C830.352,53.075,654.089-7.565,458.101,18.555
		C221.536,50.081,45.813,196.065,65.609,344.622c19.798,148.556,227.621,243.427,464.184,211.901
		c29.023-3.868,57.132-9.458,84.074-16.566L896.307,159.124z"/>
	<path fill="#0000FF" d="M375.19,263.272c-5.058-44.082,48.298-86.406,119.171-94.537c70.873-8.127,132.425,21.011,137.481,65.095
		c5.056,44.08-48.296,86.404-119.17,94.535C441.797,336.495,380.247,307.354,375.19,263.272z"/>
	
		<ellipse transform="matrix(0.9823 -0.1874 0.1874 0.9823 -81.5407 103.3201)" fill="#00FC00" cx="505.632" cy="482.884" rx="114.31" ry="80.007"/>
	
		<ellipse transform="matrix(-0.9792 0.2027 -0.2027 -0.9792 391.0404 515.1895)" fill="#FC00FC" cx="169.135" cy="277.622" rx="106.536" ry="61.113"/>
	
		<ellipse transform="matrix(-0.9896 0.1441 -0.1441 -0.9896 762.2247 123.116)" fill="#00FC00" cx="376.654" cy="89.163" rx="90.968" ry="52.313"/>
	
		<ellipse transform="matrix(0.9993 -0.0371 0.0371 0.9993 -4.8519 29.1509)" fill="#FC00FC" cx="782.903" cy="145.285" rx="92.415" ry="56.122"/>
</g>
</svg>
