<?xml version="1.0" encoding="UTF-8" standalone="no"?>
<!-- Created with Inkscape (http://www.inkscape.org/) -->

<svg
   xmlns:dc="http://purl.org/dc/elements/1.1/"
   xmlns:cc="http://creativecommons.org/ns#"
   xmlns:rdf="http://www.w3.org/1999/02/22-rdf-syntax-ns#"
   xmlns:svg="http://www.w3.org/2000/svg"
   xmlns="http://www.w3.org/2000/svg"
   xmlns:sodipodi="http://sodipodi.sourceforge.net/DTD/sodipodi-0.dtd"
   xmlns:inkscape="http://www.inkscape.org/namespaces/inkscape"
   width="512"
   height="512"
   id="svg2"
   sodipodi:version="0.32"
   inkscape:version="0.48.2 r9819"
   version="1.0"
   sodipodi:docname="single2010.svg"
   inkscape:output_extension="org.inkscape.output.svg.inkscape">
  <defs
     id="defs4">
    <inkscape:perspective
       sodipodi:type="inkscape:persp3d"
       inkscape:vp_x="0 : 526.18109 : 1"
       inkscape:vp_y="6.1230318e-14 : 1000 : 0"
       inkscape:vp_z="744.09448 : 526.18109 : 1"
       inkscape:persp3d-origin="372.04724 : 350.78739 : 1"
       id="perspective10" />
    <inkscape:perspective
       id="perspective3292"
       inkscape:persp3d-origin="372.04724 : 350.78739 : 1"
       inkscape:vp_z="744.09448 : 526.18109 : 1"
       inkscape:vp_y="0 : 1000 : 0"
       inkscape:vp_x="0 : 526.18109 : 1"
       sodipodi:type="inkscape:persp3d" />
    <inkscape:perspective
       id="perspective4008"
       inkscape:persp3d-origin="372.04724 : 350.78739 : 1"
       inkscape:vp_z="744.09448 : 526.18109 : 1"
       inkscape:vp_y="0 : 1000 : 0"
       inkscape:vp_x="0 : 526.18109 : 1"
       sodipodi:type="inkscape:persp3d" />
    <inkscape:perspective
       id="perspective2567"
       inkscape:persp3d-origin="372.04724 : 350.78739 : 1"
       inkscape:vp_z="744.09448 : 526.18109 : 1"
       inkscape:vp_y="0 : 1000 : 0"
       inkscape:vp_x="0 : 526.18109 : 1"
       sodipodi:type="inkscape:persp3d" />
    <inkscape:perspective
       id="perspective2624"
       inkscape:persp3d-origin="372.04724 : 350.78739 : 1"
       inkscape:vp_z="744.09448 : 526.18109 : 1"
       inkscape:vp_y="0 : 1000 : 0"
       inkscape:vp_x="0 : 526.18109 : 1"
       sodipodi:type="inkscape:persp3d" />
    <inkscape:perspective
       id="perspective2579"
       inkscape:persp3d-origin="372.04724 : 350.78739 : 1"
       inkscape:vp_z="744.09448 : 526.18109 : 1"
       inkscape:vp_y="0 : 1000 : 0"
       inkscape:vp_x="0 : 526.18109 : 1"
       sodipodi:type="inkscape:persp3d" />
  </defs>
  <sodipodi:namedview
     id="base"
     pagecolor="#3f3f3f"
     bordercolor="#666666"
     borderopacity="1.0"
     gridtolerance="10000"
     guidetolerance="10"
     objecttolerance="10"
     inkscape:pageopacity="0"
     inkscape:pageshadow="2"
     inkscape:zoom="0.83977198"
     inkscape:cx="-40.915102"
     inkscape:cy="266.70412"
     inkscape:document-units="px"
     inkscape:current-layer="g3379"
     showgrid="false"
     inkscape:window-width="1276"
     inkscape:window-height="756"
     inkscape:window-x="4"
     inkscape:window-y="0"
     inkscape:window-maximized="1" />
  <metadata
     id="metadata7">
    <rdf:RDF>
      <cc:Work
         rdf:about="">
        <dc:format>image/svg+xml</dc:format>
        <dc:type
           rdf:resource="http://purl.org/dc/dcmitype/StillImage" />
        <dc:title></dc:title>
        <cc:license
           rdf:resource="http://creativecommons.org/licenses/publicdomain/" />
      </cc:Work>
      <cc:License
         rdf:about="http://creativecommons.org/licenses/publicdomain/">
        <cc:permits
           rdf:resource="http://creativecommons.org/ns#Reproduction" />
        <cc:permits
           rdf:resource="http://creativecommons.org/ns#Distribution" />
        <cc:permits
           rdf:resource="http://creativecommons.org/ns#DerivativeWorks" />
      </cc:License>
    </rdf:RDF>
  </metadata>
  <g
     inkscape:label="Layer 1"
     inkscape:groupmode="layer"
     id="layer1"
     transform="translate(0,-88)">
    <g
       id="g3379"
       transform="matrix(3.0217894,0,0,3.0217894,600.66329,558.76769)">
      <path
         style="fill:#3f3f3f;fill-opacity:1;stroke:none"
         d="m -178.23725,-126.35227 c -12.79805,14.84106 -20.5401,34.159385 -20.5401,55.279253 0,46.763345 37.95467,84.718044 84.71801,84.718015 46.763351,0 84.718024,-37.95467 84.718018,-84.718015 0,-21.119868 -7.750872,-40.438193 -20.548925,-55.279253 l -128.347003,0 z"
         id="path2591"
         inkscape:connector-curvature="0" />
      <path
         sodipodi:type="arc"
         style="fill:#0000ff;fill-opacity:1;stroke:none"
         id="path2593"
         sodipodi:cx="239.77502"
         sodipodi:cy="374.09445"
         sodipodi:rx="129.74129"
         sodipodi:ry="105.10686"
         d="m 369.51631,374.09445 c 0,58.04892 -58.08715,105.10686 -129.74129,105.10686 -71.65413,0 -129.74128,-47.05794 -129.74128,-105.10686 0,-58.04891 58.08715,-105.10686 129.74128,-105.10686 71.65414,0 129.74129,47.05795 129.74129,105.10686 z"
         transform="matrix(0.1905141,0,0,0.2351658,-159.73986,-159.04906)" />
      <path
         transform="matrix(0.1519766,0,0,0.1875961,-205.27031,-176.50283)"
         d="m 369.51631,374.09445 c 0,58.04892 -58.08715,105.10686 -129.74129,105.10686 -71.65413,0 -129.74128,-47.05794 -129.74128,-105.10686 0,-58.04891 58.08715,-105.10686 129.74128,-105.10686 71.65414,0 129.74129,47.05795 129.74129,105.10686 z"
         sodipodi:ry="105.10686"
         sodipodi:rx="129.74129"
         sodipodi:cy="374.09445"
         sodipodi:cx="239.77502"
         id="path2595"
         style="fill:#ff00ff;fill-opacity:1;stroke:none"
         sodipodi:type="arc" />
      <path
         sodipodi:type="arc"
         style="fill:#00ff00;fill-opacity:1;stroke:none"
         id="path2597"
         sodipodi:cx="239.77502"
         sodipodi:cy="374.09445"
         sodipodi:rx="129.74129"
         sodipodi:ry="105.10686"
         d="m 369.51631,374.09445 c 0,58.04892 -58.08715,105.10686 -129.74129,105.10686 -71.65413,0 -129.74128,-47.05794 -129.74128,-105.10686 0,-58.04891 58.08715,-105.10686 129.74128,-105.10686 71.65414,0 129.74129,47.05795 129.74129,105.10686 z"
         transform="matrix(0.1519766,0,0,0.1875961,-185.50068,-86.483491)" />
      <path
         transform="matrix(0.1519766,0,0,0.1875961,-115.50197,-86.483491)"
         d="m 369.51631,374.09445 c 0,58.04892 -58.08715,105.10686 -129.74129,105.10686 -71.65413,0 -129.74128,-47.05794 -129.74128,-105.10686 0,-58.04891 58.08715,-105.10686 129.74128,-105.10686 71.65414,0 129.74129,47.05795 129.74129,105.10686 z"
         sodipodi:ry="105.10686"
         sodipodi:rx="129.74129"
         sodipodi:cy="374.09445"
         sodipodi:cx="239.77502"
         id="path2599"
         style="fill:#ff00ff;fill-opacity:1;stroke:none"
         sodipodi:type="arc" />
      <path
         sodipodi:type="arc"
         style="fill:#ff00ff;fill-opacity:1;stroke:none"
         id="path2601"
         sodipodi:cx="239.77502"
         sodipodi:cy="374.09445"
         sodipodi:rx="129.74129"
         sodipodi:ry="105.10686"
         d="m 369.51631,374.09445 c 0,58.04892 -58.08715,105.10686 -129.74129,105.10686 -71.65413,0 -129.74128,-47.05794 -129.74128,-105.10686 0,-58.04891 58.08715,-105.10686 129.74128,-105.10686 71.65414,0 129.74129,47.05795 129.74129,105.10686 z"
         transform="matrix(0.1519766,0,0,0.1875961,-95.73234,-176.50283)" />
    </g>
  </g>
</svg>
